<svg id="Layer_1" data-name="Layer 1" xmlns="http://www.w3.org/2000/svg" viewBox="0 0 799.68 430.55"><defs><style>.cls-1{fill:#3fbafe;}.cls-2{fill:#4facfe;}.cls-3{fill:#4f90fe;}.cls-4{fill:#fff;}.cls-5{fill:#00f2fe;}.cls-6{fill:#0fe4fe;}.cls-7{fill:#1fd6fe;}.cls-8{fill:#2fc8fe;}.cls-9{fill:#1dd3eb;}.cls-10{fill:#3aded7;}.cls-11{fill:#57e8c4;}.cls-12{fill:#74f3b0;}.cls-13{fill:#92fe9d;}.cls-14{fill:#00c9ff;}</style></defs><title>Perfect</title><polygon class="cls-1" points="299.84 0.22 250 86.55 349.68 86.55 299.84 0.22"/><polygon class="cls-1" points="99.84 0.22 50 86.55 149.68 86.55 99.84 0.22"/><polygon class="cls-2" points="399.68 0 399.55 0.22 349.84 86.32 349.67 86.02 349.66 86 349.54 85.8 300.13 0.22 300 0 399.68 0"/><polygon class="cls-2" points="99.68 0 99.55 0.22 50.2 85.7 50.02 86 50.01 86.02 49.84 86.32 0.13 0.22 0 0 99.68 0"/><polygon class="cls-3" points="82.53 430.55 82.15 430.55 82.23 430.4 82.34 430.22 82.53 430.55"/><polygon class="cls-4" points="149.99 430.22 150.18 430.55 50.5 430.55 50.69 430.22 149.99 430.22"/><polygon class="cls-4" points="349.49 430.22 349.68 430.55 250 430.55 250.19 430.22 349.49 430.22"/><polygon class="cls-4" points="349.78 430.22 349.9 430.22 349.84 430.32 349.78 430.22"/><polygon class="cls-4" points="449.49 430.22 449.68 430.55 350 430.55 350.19 430.22 449.49 430.22"/><polygon class="cls-4" points="449.78 430.22 449.9 430.22 449.84 430.32 449.78 430.22"/><polygon class="cls-4" points="549.49 430.22 549.68 430.55 450 430.55 450.19 430.22 549.49 430.22"/><polygon class="cls-4" points="549.9 430.22 549.84 430.32 549.78 430.22 549.9 430.22"/><polygon class="cls-5" points="199.84 172.22 150 258.55 249.68 258.55 199.84 172.22"/><polygon class="cls-6" points="200 172 249.84 258.32 299.68 172 200 172"/><polygon class="cls-7" points="249.84 86.22 200 172.55 299.68 172.55 249.84 86.22"/><polygon class="cls-8" points="250 86 299.84 172.32 349.68 86 250 86"/><polygon class="cls-6" points="150 258 199.84 344.32 249.68 258 150 258"/><polygon class="cls-7" points="149.84 258.22 100 344.55 199.68 344.55 149.84 258.22"/><polygon class="cls-8" points="100 344 149.84 430.32 199.68 344 100 344"/><polygon class="cls-1" points="150.18 430.55 50.5 430.55 50.69 430.22 100.15 344.55 100.23 344.4 100.34 344.22 100.53 344.55 100.69 344.83 149.86 430 149.94 430.14 149.99 430.22 150.18 430.55"/><polygon class="cls-6" points="100 172 149.84 258.32 199.68 172 100 172"/><polygon class="cls-7" points="149.84 86.22 100 172.55 199.68 172.55 149.84 86.22"/><polygon class="cls-8" points="50 86 99.84 172.32 149.68 86 50 86"/><polygon class="cls-9" points="400 172 449.84 258.32 499.68 172 400 172"/><polygon class="cls-10" points="499.84 172.22 450 258.55 549.68 258.55 499.84 172.22"/><polygon class="cls-11" points="500 172 549.84 258.32 599.68 172 500 172"/><polygon class="cls-12" points="599.84 172.22 550 258.55 649.68 258.55 599.84 172.22"/><polygon class="cls-13" points="600 172 649.84 258.32 699.68 172 600 172"/><polygon class="cls-14" points="499.84 1.22 450 87.55 549.68 87.55 499.84 1.22"/><polygon class="cls-9" points="500 0.99 549.84 87.32 599.68 0.99 500 0.99"/><polygon class="cls-10" points="599.84 1.22 550 87.55 649.68 87.55 599.84 1.22"/><polygon class="cls-11" points="600 0.99 649.84 87.32 699.68 0.99 600 0.99"/><polygon class="cls-12" points="699.84 1.22 650 87.55 749.68 87.55 699.84 1.22"/><polygon class="cls-13" points="700 0.99 749.84 87.32 799.68 0.99 700 0.99"/><polygon class="cls-14" points="349.68 430.55 250 430.55 250.19 430.22 299.84 344.22 349.49 430.22 349.68 430.55"/><polygon class="cls-9" points="399.68 344 349.9 430.22 349.84 430.32 349.78 430.22 300 344 399.68 344"/><polygon class="cls-10" points="449.68 430.55 350 430.55 350.19 430.22 399.84 344.22 449.49 430.22 449.68 430.55"/><polygon class="cls-11" points="499.68 344 449.9 430.22 449.84 430.32 449.78 430.22 400 344 499.68 344"/><polygon class="cls-12" points="549.68 430.55 450 430.55 450.19 430.22 499.84 344.22 549.49 430.22 549.68 430.55"/><polygon class="cls-13" points="599.68 344 549.9 430.22 549.84 430.32 549.78 430.22 500 344 599.68 344"/><polygon class="cls-14" points="399.84 172.22 350 258.55 449.68 258.55 399.84 172.22"/></svg>